HIERARCHY
ROOT Hips
{
 OFFSET 0.000000 0.000000 0.000000
 CHANNELS 6 Xposition Yposition Zposition Yrotation Xrotation Zrotation
 JOINT Chest
 {
  OFFSET 0.000000 10.678932 0.006280
  CHANNELS 3 Yrotation Xrotation Zrotation
  JOINT Chest2
  {
   OFFSET 0.000000 10.491159 -0.011408
   CHANNELS 3 Yrotation Xrotation Zrotation
   JOINT Chest3
   {
    OFFSET 0.000000 9.479342 0.000000
    CHANNELS 3 Yrotation Xrotation Zrotation
    JOINT Chest4
    {
     OFFSET 0.000000 9.479342 0.000000
     CHANNELS 3 Yrotation Xrotation Zrotation
     JOINT Neck
     {
      OFFSET 0.000000 13.535332 0.000000
      CHANNELS 3 Yrotation Xrotation Zrotation
      JOINT Head
      {
       OFFSET 0.000000 8.819083 -0.027129
       CHANNELS 3 Yrotation Xrotation Zrotation
       End Site
       {
        OFFSET 0.000000 16.966594 -0.014170
       }
      }
     }
     JOINT RightCollar
     {
      OFFSET -3.012546 7.545150 0.000000
      CHANNELS 3 Yrotation Xrotation Zrotation
      JOINT RightShoulder
      {
       OFFSET -13.683099 0.000000 0.000000
       CHANNELS 3 Yrotation Xrotation Zrotation
       JOINT RightElbow
       {
        OFFSET -26.359998 0.000000 0.000000
        CHANNELS 3 Yrotation Xrotation Zrotation
        JOINT RightWrist
        {
         OFFSET -21.746691 0.000000 0.008601
         CHANNELS 3 Yrotation Xrotation Zrotation
         End Site
         {
          OFFSET -16.348058 0.000000 0.000000
         }
        }
       }
      }
     }
     JOINT LeftCollar
     {
      OFFSET 3.012546 7.545150 0.000000
      CHANNELS 3 Yrotation Xrotation Zrotation
      JOINT LeftShoulder
      {
       OFFSET 13.683099 0.000000 0.000000
       CHANNELS 3 Yrotation Xrotation Zrotation
       JOINT LeftElbow
       {
        OFFSET 26.359998 0.000000 0.000000
        CHANNELS 3 Yrotation Xrotation Zrotation
        JOINT LeftWrist
        {
         OFFSET 21.746691 0.000000 0.008601
         CHANNELS 3 Yrotation Xrotation Zrotation
         End Site
         {
          OFFSET 16.348058 0.000000 0.000000
         }
        }
       }
      }
     }
    }
   }
  }
 }
 JOINT RightHip
 {
  OFFSET -8.622479 -0.030774 -0.003140
  CHANNELS 3 Yrotation Xrotation Zrotation
  JOINT RightKnee
  {
   OFFSET 0.000000 -37.209160 -0.002630
   CHANNELS 3 Yrotation Xrotation Zrotation
   JOINT RightAnkle
   {
    OFFSET 0.000000 -37.343279 -0.058479
    CHANNELS 3 Yrotation Xrotation Zrotation
    JOINT RightToe
    {
     OFFSET 0.000000 -8.903465 15.088070
     CHANNELS 3 Yrotation Xrotation Zrotation
     End Site
     {
      OFFSET 0.000000 -1.471739 6.884388
     }
    }
   }
  }
 }
 JOINT LeftHip
 {
  OFFSET 8.622479 -0.030774 -0.003140
  CHANNELS 3 Yrotation Xrotation Zrotation
  JOINT LeftKnee
  {
   OFFSET 0.000000 -37.209160 -0.002630
   CHANNELS 3 Yrotation Xrotation Zrotation
   JOINT LeftAnkle
   {
    OFFSET 0.000000 -37.343279 -0.058479
    CHANNELS 3 Yrotation Xrotation Zrotation
    JOINT LeftToe
    {
     OFFSET 0.000000 -8.903465 15.088070
     CHANNELS 3 Yrotation Xrotation Zrotation
     End Site
     {
      OFFSET 0.000000 -1.471739 6.884388
     }
    }
   }
  }
 }
}
MOTION
Frames: 11
Frame Time: 0.025000
3.104250 82.505548 -2.154520 -156.921219 -14.127782 3.250458 -0.855568 10.407415 -0.431261 -0.084539 0.744500 -0.036125 -0.131415 1.155459 -0.056540 -1.034351 8.774893 -0.499678 -3.682005 13.351030 -0.974583 -6.578186 -11.353397 -0.353569 5.094279 10.537898 1.268432 -17.207991 -6.558861 77.006321 21.517718 6.852932 9.269322 4.980965 5.122695 -32.404034 -0.120712 10.897674 -5.532648 7.582273 -0.363056 -75.029375 -11.371352 15.145660 -1.104832 -5.534493 7.204233 11.480599 -10.739231 13.740962 -21.598671 0.427604 2.327160 -0.525046 13.268011 -7.256263 16.083039 0.113408 -0.138392 0.053307 6.450077 21.663482 11.493160 7.533239 -5.464854 0.328473 -4.638234 -2.251946 -18.013953 -0.846022 -0.459566 -0.259898
2.944307 82.559339 -2.376954 -157.011116 -12.792201 3.041602 -0.637014 9.949174 -0.357681 -0.075134 0.671153 -0.026130 -0.117404 1.047485 -0.041170 -0.968323 8.391590 -0.392938 -3.729773 12.933072 -0.835434 -6.740129 -12.120529 -0.049743 2.639236 10.157903 1.516053 -22.587530 0.650555 76.213754 27.590869 7.480418 9.917136 4.841587 5.034980 -32.599683 1.696021 12.121284 -3.567787 9.995613 6.480090 -76.312864 -16.948606 15.586062 -1.466352 -5.589171 7.569274 12.801195 -10.317615 12.983492 -21.057017 0.243389 1.760574 -0.617266 13.127144 -6.762847 16.110755 0.219359 -0.484300 0.128339 6.411371 21.099834 11.337536 7.576853 -6.483584 0.402896 -4.255514 -1.798405 -18.080690 -1.103224 -0.626228 -0.387296
2.778173 82.589530 -2.584539 -157.061160 -11.681992 2.812770 -0.459152 9.769242 -0.323320 -0.069620 0.634007 -0.018703 -0.109079 0.992465 -0.029619 -0.921274 8.188469 -0.302991 -3.820688 12.537718 -0.644758 -7.007817 -12.840594 0.371386 0.229990 9.528896 0.849431 -26.227974 7.691231 75.020770 33.517017 6.890681 10.625460 5.045015 4.897903 -33.428197 3.811126 13.205427 -0.429475 12.363507 12.407652 -78.026816 -23.148308 14.613242 -2.660450 -6.321591 7.920743 13.570179 -10.031372 12.377371 -20.604064 0.071588 1.275295 -0.663477 13.106782 -6.395175 16.110631 0.314834 -0.751330 0.192928 6.698960 20.493220 11.358642 7.597081 -7.132575 0.466263 -4.207087 -1.620904 -18.145371 -1.276612 -0.694668 -0.511901
2.637380 82.607978 -2.750216 -156.852614 -10.645898 2.641341 -0.558133 9.583299 -0.363544 -0.071706 0.621611 -0.013030 -0.112426 0.974020 -0.020763 -0.953632 8.116468 -0.233025 -3.921813 12.174882 -0.391738 -7.323839 -13.494809 0.917313 -2.039692 8.765593 -0.303913 -28.709690 14.380807 73.861697 39.258529 5.737537 11.103066 5.258316 4.513333 -34.970051 6.778393 13.980265 3.379748 14.801161 17.415209 -79.538370 -29.200475 13.379626 -5.000212 -7.266533 7.768753 14.468913 -10.160528 11.750767 -20.316985 0.028744 0.821514 -0.686499 12.970847 -6.088319 16.130483 0.385138 -0.932723 0.237956 6.819239 19.622828 11.351645 7.477349 -7.305098 0.536230 -4.249830 -1.646258 -18.175547 -1.294937 -0.729949 -0.615728
2.573416 82.602566 -2.877405 -156.488351 -9.773942 2.499696 -0.737478 9.438338 -0.356823 -0.074922 0.621814 -0.007147 -0.117433 0.974303 -0.011560 -0.990396 8.116107 -0.158406 -4.079239 11.859088 -0.145207 -7.746640 -14.057107 1.475702 -4.725043 8.369628 -1.948568 -30.686527 20.217825 73.037292 45.371809 4.657228 12.044439 5.703583 4.151870 -37.094390 10.312958 14.844148 7.589549 16.438110 21.275152 -80.907045 -35.037332 11.946749 -8.420938 -8.006395 7.521488 15.810610 -10.446840 11.238229 -20.053866 -0.073648 0.429832 -0.728823 12.960583 -5.973512 16.140467 0.404616 -0.959989 0.247453 6.627915 18.694966 11.335462 7.284119 -7.145886 0.621381 -4.303614 -1.814678 -18.180111 -1.184997 -0.730939 -0.681565
2.586416 82.577817 -2.971487 -156.076925 -9.004454 2.369825 -0.944074 9.320456 -0.261928 -0.081479 0.618082 0.002440 -0.127692 0.968690 0.003433 -1.071044 8.089473 -0.037991 -4.235770 11.541119 0.017263 -8.135669 -14.626785 1.876809 -7.580425 8.650935 -3.842325 -33.321015 24.572916 72.134448 52.247250 4.735363 14.374037 6.910487 4.286495 -39.452929 14.127843 15.244437 10.869858 17.029286 24.575890 -81.112284 -41.170149 10.522094 -12.322456 -9.311600 7.393626 17.225399 -10.573213 10.869892 -19.718635 -0.288665 0.060898 -0.805275 12.811537 -5.988028 16.173862 0.378909 -0.838218 0.221864 6.231557 17.774875 11.317719 7.238671 -6.848521 0.696953 -4.364481 -2.048651 -18.149871 -1.062569 -0.654456 -0.716877
2.647725 82.551153 -3.068812 -155.779623 -8.338628 2.217312 -1.052244 9.209362 -0.121259 -0.085102 0.606226 0.013176 -0.133440 0.950977 0.020268 -1.120747 8.016029 0.101920 -4.392329 11.244619 0.124732 -8.502657 -15.159036 2.173978 -10.218648 9.188459 -5.484083 -36.235828 28.104062 70.901403 60.055634 5.952214 17.783627 8.871210 5.013604 -42.107423 17.714027 14.633368 13.425855 16.392107 27.618157 -80.831499 -47.396329 9.331541 -15.981977 -11.246733 7.322269 18.436548 -10.481974 10.637814 -19.356367 -0.591925 -0.316034 -0.816165 12.707494 -5.998153 16.182999 0.344589 -0.709229 0.183963 5.926196 17.010157 11.404088 7.190696 -6.638425 0.724289 -4.365993 -2.214352 -18.112248 -0.983091 -0.579116 -0.714766
2.717554 82.522381 -3.170525 -155.545288 -7.799623 2.041074 -1.182980 9.113398 -0.063370 -0.089681 0.597744 0.017727 -0.140691 0.938262 0.027408 -1.186025 7.960144 0.160121 -4.474777 11.000325 0.249571 -8.733615 -15.596853 2.470184 -12.446184 9.331483 -6.609722 -38.078850 31.087259 69.465118 68.149755 8.078344 21.599644 11.573220 6.563346 -45.369042 20.660232 14.234137 15.740855 14.818107 29.748236 -81.100984 -53.910659 8.207386 -19.435966 -13.074234 7.150991 19.814793 -10.453389 10.511703 -19.040628 -0.862665 -0.736949 -0.746359 12.726956 -5.971749 16.173859 0.302931 -0.593379 0.138462 5.651267 16.493347 11.569709 7.205624 -6.632929 0.690502 -4.393262 -2.279538 -18.112043 -0.896129 -0.511964 -0.661933
2.782250 82.489701 -3.248707 -155.335726 -7.346503 1.887234 -1.364086 8.902480 -0.120529 -0.095109 0.578433 0.015510 -0.149450 0.909331 0.023951 -1.282474 7.836446 0.129082 -4.515532 10.956503 0.400392 -8.882233 -15.663152 2.782068 -14.173657 9.359654 -7.498483 -38.417347 33.491427 68.079628 76.342559 10.467759 25.958032 14.532338 8.700430 -48.824146 22.732529 13.726202 17.459222 13.702376 31.208887 -80.684461 -60.573825 7.307972 -23.710969 -14.386366 6.938048 21.008323 -10.604508 10.389307 -18.807668 -0.999934 -1.165336 -0.669362 12.762168 -5.933518 16.193391 0.265001 -0.467326 0.098615 5.432490 16.142470 11.704915 7.217263 -6.820868 0.673712 -4.404190 -2.245079 -18.129376 -0.832051 -0.434703 -0.607464
2.844157 82.452222 -3.297507 -155.189948 -7.041485 1.752785 -1.545159 8.686313 -0.228411 -0.101626 0.554496 0.011275 -0.160022 0.873366 0.017313 -1.405278 7.678231 0.068855 -4.493052 11.071177 0.530619 -8.887722 -15.441491 3.012494 -15.259358 9.129284 -8.219942 -37.997836 35.454307 66.431360 85.160294 11.901269 31.008979 16.836590 10.497071 -50.186867 23.664182 13.217839 18.732808 12.783580 32.194318 -80.207660 -67.590709 6.088086 -28.281767 -14.585693 6.680010 19.587229 -10.763529 10.339790 -18.594328 -1.013764 -1.546156 -0.657113 12.813690 -5.918591 16.240049 0.237597 -0.343108 0.071427 5.207405 15.987836 11.782600 7.364396 -7.094329 0.676705 -4.412337 -2.171757 -18.122270 -0.815309 -0.330576 -0.582663
2.914627 82.403620 -3.318664 -155.199517 -6.885620 1.637003 -1.679764 8.451596 -0.289532 -0.107045 0.523102 0.008274 -0.169008 0.826055 0.012620 -1.528716 7.466101 0.025497 -4.435602 11.328936 0.593198 -8.784803 -14.962752 3.084837 -15.714380 8.949150 -8.880927 -36.590993 36.592009 64.976664 94.261706 11.593061 36.308467 18.680575 11.681213 -48.410235 23.528868 12.825092 19.549241 11.254184 32.463597 -80.054885 -74.531628 4.414205 -32.819083 -14.034340 6.752386 17.030056 -10.849290 10.320234 -18.421095 -0.967517 -1.816241 -0.650797 12.740600 -5.898561 16.308762 0.205503 -0.195244 0.044947 5.239674 15.968258 11.910443 7.468912 -7.377765 0.657859 -4.450768 -2.099744 -18.114757 -0.812586 -0.211926 -0.564640
